# xmcd CD database file
#
# Track frame offsets:
#	150
#	21897
#	39672
#
# Disc length: 815 seconds
#
# Revision: 0
# Processed by: cddbd v1.5.1PL0 Copyright (c) Steve Scherf et al.
# Submitted via: CDex 1.51
#
DISCID=1d032d03
DTITLE=井上陽水 - 嘘つきダイヤモンド
DYEAR=1995
DGENRE=Pop
TTITLE0=嘘つきダイヤモンド
TTITLE1=Over Time
TTITLE2=嘘つきダイヤモンド　Instrumental
EXTD=YEAR: 1995
EXTT0=
EXTT1=
EXTT2=
PLAYORDER=
